# File created by Blade
# Date/Time:  Wed Jan 21 15:55:51 2015
# Frame Rate: 120.000 fps
#------------------------------------------------------
:FULLY-SPECIFIED
:DEGREES
549
root 24.328359 14.916291 -12.544928 -175.189822 14.975418 -201.884470
Spine 31.590546 -6.537167 30.104625
Head -10.594920 9.985556 23.667087
LeftShoulder -9.284049 -35.867092 32.582710
LeftArm -2.217296 -3.981994 0.009528
LeftForeArm -3.346016 -0.000000 -5.065056
LeftHand -11.861877 -0.000000 -2.037525
LeftHandThumb1 -26.253704 0.000000 33.147579
RightShoulder -5.547008 -0.586185 -1.109257
RightArm 29.498012 47.525799 75.824288
RightForeArm 13.062937 -0.000000 13.417958
RightHand 5.094238 0.000000 -39.081749
RightHandThumb1 -24.326973 -0.000000 -32.862282
LeftUpLeg 1.793500 33.303946 40.211032
LeftLeg 2.032462 -0.000000 -0.000000
LeftFoot -2.120822 20.038527 -25.200723
LeftToeBase 43.835551 -0.000000 -0.000000
RightUpLeg -109.246616 -14.434584 -4.301871
RightLeg 133.818824 -0.000000 -0.000000
RightFoot -66.790952 -35.607995 35.861607
RightToeBase 21.265206 -0.000000 -0.000000
550
root 24.308827 14.960760 -12.564220 -175.093730 14.976904 -201.874330
Spine 31.248868 -6.076875 30.776912
Head -10.466553 10.258247 23.569461
LeftShoulder -9.629710 -36.022222 33.218925
LeftArm -2.595616 -4.105061 0.792185
LeftForeArm -3.038123 -0.000000 -5.121795
LeftHand -11.881184 -0.000000 -1.828226
LeftHandThumb1 -26.253704 0.000000 33.147579
RightShoulder -5.992052 -1.274314 -0.932708
RightArm 30.803092 48.122556 76.389162
RightForeArm 12.834086 -0.000000 13.184123
RightHand 5.163097 0.000000 -40.198769
RightHandThumb1 -24.326973 -0.000000 -32.862282
LeftUpLeg 1.721993 33.385157 40.095406
LeftLeg 2.038856 -0.000000 -0.000000
LeftFoot -2.193787 19.985458 -25.149270
LeftToeBase 43.813046 -0.000000 -0.000000
RightUpLeg -109.150061 -14.478874 -4.390740
RightLeg 133.685319 -0.000000 -0.000000
RightFoot -66.784252 -35.596235 35.904329
RightToeBase 21.172094 -0.000000 -0.000000
551
root 24.292626 15.005246 -12.579789 -174.965784 14.961600 -201.784633
Spine 30.909097 -5.605272 31.560913
Head -10.343142 10.558319 23.434881
LeftShoulder -9.908888 -36.236424 33.776843
LeftArm -2.962036 -4.200179 1.656685
LeftForeArm -2.821016 -0.000000 -5.111444
LeftHand -11.918633 -0.000000 -2.185194
LeftHandThumb1 -26.253704 0.000000 33.147579
RightShoulder -6.514798 -1.966981 -0.910815
RightArm 32.035811 48.537050 77.002447
RightForeArm 12.474092 -0.000000 12.905542
RightHand 5.028640 -0.000000 -41.278695
RightHandThumb1 -24.326973 -0.000000 -32.862282
LeftUpLeg 1.619419 33.456365 40.060899
LeftLeg 2.063603 -0.000000 -0.000000
LeftFoot -2.244925 19.916171 -25.089110
LeftToeBase 43.816605 -0.000000 -0.000000
RightUpLeg -109.039669 -14.514346 -4.405785
RightLeg 133.534765 -0.000000 -0.000000
RightFoot -66.787070 -35.590800 35.960517
RightToeBase 21.391192 -0.000000 -0.000000
552
root 24.271463 15.049962 -12.598063 -174.834089 14.964833 -201.756295
Spine 30.540392 -5.161817 32.253599
Head -10.211181 10.823769 23.259949
LeftShoulder -10.267712 -36.356259 34.374786
LeftArm -3.219890 -4.099934 2.413065
LeftForeArm -2.940768 -0.000000 -5.099446
LeftHand -12.054610 -0.000000 -2.280664
LeftHandThumb1 -26.253704 0.000000 33.147579
RightShoulder -6.696154 -1.761709 -1.153253
RightArm 31.742438 49.482207 77.033656
RightForeArm 11.750953 -0.000000 13.177788
RightHand 4.821708 -0.000000 -41.938825
RightHandThumb1 -24.326973 -0.000000 -32.862282
LeftUpLeg 1.532902 33.498488 39.948280
LeftLeg 2.049961 -0.000000 -0.000000
LeftFoot -2.296547 19.914857 -25.057255
LeftToeBase 43.661468 -0.000000 -0.000000
RightUpLeg -108.977964 -14.577583 -4.477334
RightLeg 133.398560 -0.000000 -0.000000
RightFoot -66.759150 -35.546094 35.980990
RightToeBase 21.371271 -0.000000 -0.000000
553
root 24.251350 15.090722 -12.614162 -174.724613 14.976594 -201.712265
Spine 30.199133 -4.762990 32.920664
Head -10.029899 10.984775 23.078200
LeftShoulder -10.537901 -36.561589 34.918509
LeftArm -3.479172 -3.912241 3.275575
LeftForeArm -2.938883 -0.000000 -5.140508
LeftHand -12.097400 -0.000000 -1.651720
LeftHandThumb1 -26.253704 0.000000 33.147579
RightShoulder -6.803846 -1.586863 -1.483994
RightArm 31.109100 50.151559 76.798741
RightForeArm 11.616156 -0.000000 13.616329
RightHand 4.600978 -0.000000 -42.439822
RightHandThumb1 -24.326973 -0.000000 -32.862282
LeftUpLeg 1.483604 33.525839 39.882577
LeftLeg 2.024480 -0.000000 -0.000000
LeftFoot -2.377927 19.931740 -25.109323
LeftToeBase 43.747219 -0.000000 -0.000000
RightUpLeg -108.894617 -14.613641 -4.536259
RightLeg 133.263234 -0.000000 -0.000000
RightFoot -66.733399 -35.581451 35.972285
RightToeBase 21.554554 -0.000000 -0.000000
554
root 24.233720 15.133660 -12.626974 -174.589077 15.010713 -201.597314
Spine 29.886264 -4.369020 33.674060
Head -9.840344 11.170160 22.834031
LeftShoulder -10.834174 -36.730760 35.456489
LeftArm -3.707485 -3.698270 4.106647
LeftForeArm -2.797758 0.000000 -5.116222
LeftHand -12.148127 0.000000 -1.836143
LeftHandThumb1 -26.253704 0.000000 33.147579
RightShoulder -6.900830 -1.424178 -1.864761
RightArm 30.461205 50.785186 76.537560
RightForeArm 11.361328 -0.000000 14.048325
RightHand 4.282073 -0.000000 -42.830365
RightHandThumb1 -24.326973 -0.000000 -32.862282
LeftUpLeg 1.448070 33.551288 39.894013
LeftLeg 1.999625 -0.000000 -0.000000
LeftFoot -2.440890 19.953394 -25.179441
LeftToeBase 43.662861 -0.000000 -0.000000
RightUpLeg -108.798917 -14.609766 -4.521950
RightLeg 133.095604 -0.000000 -0.000000
RightFoot -66.721543 -35.583754 36.001294
RightToeBase 21.616058 -0.000000 -0.000000
555
root 24.210279 15.171394 -12.644905 -174.511728 15.032332 -201.608823
Spine 29.593191 -3.984998 34.259132
Head -9.700758 11.424891 22.649519
LeftShoulder -11.153289 -36.861366 36.013962
LeftArm -3.802390 -3.390127 4.914369
LeftForeArm -2.855501 -0.000000 -5.145889
LeftHand -12.219263 -0.000000 -1.706584
LeftHandThumb1 -26.253704 0.000000 33.147579
RightShoulder -7.025730 -1.451903 -2.149910
RightArm 30.034812 51.283880 76.323611
RightForeArm 11.016375 0.000000 14.382882
RightHand 3.807109 0.000000 -43.399077
RightHandThumb1 -24.326973 -0.000000 -32.862282
LeftUpLeg 1.428118 33.564173 39.779784
LeftLeg 1.965154 -0.000000 -0.000000
LeftFoot -2.519194 19.962136 -25.217203
LeftToeBase 43.533557 -0.000000 -0.000000
RightUpLeg -108.725446 -14.661463 -4.633678
RightLeg 132.968961 -0.000000 -0.000000
RightFoot -66.697745 -35.617630 35.975502
RightToeBase 21.626436 -0.000000 -0.000000
